<?xml version="1.0" encoding="utf-8"?>
<!-- Generator: Adobe Illustrator 16.0.0, SVG Export Plug-In . SVG Version: 6.00 Build 0)  -->
<!DOCTYPE svg PUBLIC "-//W3C//DTD SVG 1.1//EN" "http://www.w3.org/Graphics/SVG/1.1/DTD/svg11.dtd">
<svg version="1.1" id="Layer_1" xmlns="http://www.w3.org/2000/svg" xmlns:xlink="http://www.w3.org/1999/xlink" x="0px" y="0px"
	 width="146px" height="14px" viewBox="0 0 146 14" enable-background="new 0 0 146 14" xml:space="preserve">
<g>
	<g>
		<g>
			<g>
				<g>
					<defs>
						<rect id="SVGID_1_" x="6" width="134.354" height="14"/>
					</defs>
					<clipPath id="SVGID_2_">
						<use xlink:href="#SVGID_1_"  overflow="visible"/>
					</clipPath>
					<path clip-path="url(#SVGID_2_)" fill="#D91F40" d="M11.978,6.76c-0.767,0.347-1.26,0.359-2.703,0.359H7.294V1.456h1.981
						c1.443,0,1.936,0.006,2.703,0.353c1.06,0.493,1.571,1.451,1.571,2.475C13.549,5.308,13.038,6.267,11.978,6.76 M13.221,1.028
						c-0.749-0.493-1.627-0.785-3.49-0.785H6v13.511h1.294V8.333h2.437c1.863,0,2.741-0.3,3.49-0.794
						c1.005-0.675,1.68-1.83,1.68-3.255C14.901,2.859,14.226,1.704,13.221,1.028"/>
				</g>
			</g>
		</g>
		<polygon fill="#D91F40" points="16.113,0.243 16.113,13.754 23.07,13.754 23.07,12.541 17.488,12.541 17.488,0.243 		"/>
		<g>
			<g>
				<g>
					<defs>
						<rect id="SVGID_3_" x="6" width="134.354" height="14"/>
					</defs>
					<clipPath id="SVGID_4_">
						<use xlink:href="#SVGID_3_"  overflow="visible"/>
					</clipPath>
					<path clip-path="url(#SVGID_4_)" fill="#D91F40" d="M31.565,8.664c0,0.986-0.136,1.882-0.446,2.449
						c-0.822,1.516-2.151,1.662-2.79,1.662c-0.64,0-1.965-0.146-2.788-1.662c-0.31-0.567-0.448-1.463-0.448-2.449V0.242h-1.376
						v8.422c0,1.133,0.19,2.104,0.518,2.814C25.168,13.506,27.071,14,28.331,14c1.261,0,3.163-0.494,4.094-2.521
						c0.33-0.711,0.515-1.682,0.515-2.812V0.242h-1.375V8.664z"/>
				</g>
			</g>
		</g>
		<polygon fill="#D91F40" points="34.074,0.243 34.074,1.457 37.147,1.457 37.147,13.754 38.524,13.754 38.524,1.457 41.598,1.457 
			41.598,0.243 		"/>
		<rect x="42.892" y="0.242" fill="#D91F40" width="1.375" height="13.511"/>
		<polygon fill="#D91F40" points="56.241,0.243 56.241,11.486 56.192,11.486 48.646,0.243 46.857,0.243 46.857,13.754 
			48.151,13.754 48.151,1.861 48.208,1.861 56.228,13.754 57.616,13.754 57.616,0.243 		"/>
		<g>
			<g>
				<g>
					<defs>
						<rect id="SVGID_5_" x="6" width="134.354" height="14"/>
					</defs>
					<clipPath id="SVGID_6_">
						<use xlink:href="#SVGID_5_"  overflow="visible"/>
					</clipPath>
					<path clip-path="url(#SVGID_6_)" fill="#D91F40" d="M71.937,2.824v3.32c0.043,0.285,0.066,0.576,0.066,0.872
						c0,3.214-2.686,5.753-5.809,5.753c-3.143,0-5.792-2.609-5.792-5.7c0-3.361,2.741-5.846,5.792-5.846
						c1.737,0,3.3,0.778,4.368,1.994V1.465C69.331,0.54,67.802,0,66.194,0c-3.6,0-7.144,2.813-7.144,7.07
						c0,3.8,3.308,6.925,7.144,6.925c3.782,0,7.161-3.017,7.161-6.997C73.354,5.409,72.819,3.975,71.937,2.824"/>
				</g>
			</g>
			<g>
				<g>
					<defs>
						<rect id="SVGID_7_" x="6" width="134.354" height="14"/>
					</defs>
					<clipPath id="SVGID_8_">
						<use xlink:href="#SVGID_7_"  overflow="visible"/>
					</clipPath>
					<path clip-path="url(#SVGID_8_)" d="M93.37,12.643c-3.166,0-5.733-2.543-5.733-5.683c0-3.138,2.567-5.682,5.733-5.682
						c3.167,0,5.731,2.544,5.731,5.682C99.104,10.1,96.537,12.643,93.37,12.643 M93.37,0.039c-3.964,0-7.179,3.099-7.179,6.921
						c0,3.823,3.215,6.922,7.179,6.922s7.177-3.1,7.177-6.922C100.547,3.137,97.334,0.039,93.37,0.039"/>
				</g>
			</g>
		</g>
		<polygon points="124.927,0.243 124.927,13.754 131.805,13.754 131.805,12.46 126.303,12.46 126.303,0.243 		"/>
		<polygon points="115.624,0.243 115.624,13.754 122.904,13.754 122.904,12.46 116.999,12.46 116.999,7.523 122.742,7.523 
			122.742,6.311 116.999,6.311 116.999,1.537 122.904,1.537 122.904,0.243 		"/>
		<g>
			<g>
				<g>
					<defs>
						<rect id="SVGID_9_" x="6" width="134.354" height="14"/>
					</defs>
					<clipPath id="SVGID_10_">
						<use xlink:href="#SVGID_9_"  overflow="visible"/>
					</clipPath>
					<path clip-path="url(#SVGID_10_)" d="M106.479,12.459h-2.666V1.537h2.684c3.007,0,5.872,2.083,5.872,5.461
						C112.366,10.296,109.484,12.459,106.479,12.459 M106.417,0.243h-3.979v13.511h3.961c3.729,0,7.302-2.667,7.302-6.756
						C113.698,2.808,110.146,0.243,106.417,0.243"/>
				</g>
			</g>
			<g>
				<g>
					<defs>
						<rect id="SVGID_11_" x="6" width="134.354" height="14"/>
					</defs>
					<clipPath id="SVGID_12_">
						<use xlink:href="#SVGID_11_"  overflow="visible"/>
					</clipPath>
					<path clip-path="url(#SVGID_12_)" d="M136.799,6.004c-1.859-0.384-2.923-1.123-2.923-2.326c0-1.203,0.858-2.347,2.396-2.347
						c1.539,0,2.369,1.257,2.369,2.471h1.402c0-2.104-1.645-3.71-3.734-3.71c-2.631,0-3.789,1.97-3.789,3.548
						c0,2.656,1.928,3.149,3.774,3.661c1.703,0.473,2.697,1.467,2.697,2.68s-0.837,2.703-2.697,2.703
						c-2.735,0-2.791-2.731-2.791-2.731h-1.332c0,3.153,2.646,3.989,4.082,3.989c2.388,0,4.101-1.81,4.101-3.938
						C140.354,7.671,138.66,6.389,136.799,6.004"/>
				</g>
			</g>
			<g>
				<g>
					<defs>
						<rect id="SVGID_13_" x="6" width="134.354" height="14"/>
					</defs>
					<clipPath id="SVGID_14_">
						<use xlink:href="#SVGID_13_"  overflow="visible"/>
					</clipPath>
					<path clip-path="url(#SVGID_14_)" d="M70.562,12.523v1.229h1.375v-2.589C71.542,11.678,71.078,12.136,70.562,12.523"/>
				</g>
			</g>
			<g>
				<g>
					<defs>
						<rect id="SVGID_15_" x="6" width="134.354" height="14"/>
					</defs>
					<clipPath id="SVGID_16_">
						<use xlink:href="#SVGID_15_"  overflow="visible"/>
					</clipPath>
					<path clip-path="url(#SVGID_16_)" d="M77.406,11.695L72.583,0.242H70.56v1.222v1.754v7.573
						c0.711-0.801,1.205-1.798,1.375-2.905V6.145V2.823V1.978l4.908,11.695h1.13L83.02,1.597v12.156h1.375V0.242h-2.184
						L77.406,11.695z"/>
				</g>
			</g>
		</g>
	</g>
	<rect fill="none" width="1" height="1"/>
	<rect x="145" y="13" fill="none" width="1" height="1"/>
</g>
</svg>
