<?xml version="1.0" encoding="utf-8"?>
<!-- Generator: Adobe Illustrator 16.0.0, SVG Export Plug-In . SVG Version: 6.00 Build 0)  -->
<!DOCTYPE svg PUBLIC "-//W3C//DTD SVG 1.1//EN" "http://www.w3.org/Graphics/SVG/1.1/DTD/svg11.dtd">
<svg version="1.1" id="Layer_1" xmlns="http://www.w3.org/2000/svg" xmlns:xlink="http://www.w3.org/1999/xlink" x="0px" y="0px"
	 width="146px" height="14px" viewBox="0 0 146 14" enable-background="new 0 0 146 14" xml:space="preserve">
<g>
	<g>
		<g>
			<path d="M88.3,7.549c-0.31,4.02-3.817,6.449-7.144,6.449c-4.04,0-7.256-3.27-7.256-6.998c0-3.509,2.904-7,7.236-7
				c3.581,0,5.865,2.468,6.396,3.838h-1.572c-0.77-1.334-2.561-2.613-4.807-2.613c-3.418,0-5.902,2.778-5.902,5.793
				s2.484,5.755,5.957,5.755c2.869,0,4.989-2.119,5.465-4.002h-7.548V7.549H88.3z"/>
			<path d="M89.529,0.238h3.435c1.812,0,2.705,0.219,3.326,0.512c1.519,0.712,2.412,2.193,2.412,3.856
				c0,1.955-1.406,3.947-4.021,4.111l3.819,5.045h-1.7l-4.586-6.123c1.719,0,2.303-0.018,2.905-0.201
				c1.481-0.42,2.229-1.663,2.229-2.869c0-1.06-0.604-2.157-1.48-2.595c-0.805-0.42-1.498-0.512-2.631-0.512h-2.357v12.299h-1.354
				V0.238H89.529z"/>
			<path d="M106.443,12.775c3.127,0,5.812-2.541,5.812-5.758c0-3.161-2.613-5.792-5.812-5.792c-3.051,0-5.793,2.486-5.793,5.848
				C100.65,10.162,103.303,12.775,106.443,12.775 M106.443,0c3.803,0,7.164,3.015,7.164,6.999c0,3.985-3.381,7-7.164,7
				c-3.838,0-7.144-3.127-7.144-6.927C99.301,2.814,102.846,0,106.443,0"/>
			<path d="M116.363,0.238v8.424c0,0.986,0.146,1.883,0.457,2.449c0.822,1.518,2.156,1.662,2.796,1.662s1.973-0.146,2.796-1.662
				c0.311-0.566,0.457-1.463,0.457-2.449V0.238h1.352v8.424c0,1.135-0.182,2.102-0.512,2.814c-0.932,2.028-2.832,2.522-4.093,2.522
				s-3.162-0.494-4.093-2.522c-0.33-0.713-0.514-1.681-0.514-2.814V0.238H116.363z"/>
			<path d="M127.689,7.091h1.955c1.442,0,1.937,0,2.703-0.347c1.062-0.494,1.571-1.444,1.571-2.467c0-1.024-0.511-1.974-1.571-2.467
				c-0.768-0.348-1.261-0.348-2.703-0.348h-1.955V7.091z M126.337,0.238h3.765c1.862,0,2.741,0.292,3.489,0.786
				c1.007,0.676,1.683,1.827,1.683,3.253c0,1.425-0.676,2.576-1.683,3.252c-0.748,0.494-1.627,0.785-3.489,0.785h-2.412v5.446
				h-1.353V0.238z"/>
			<path fill="#D81E40" d="M13.353,7.092h1.955c1.443,0,1.938,0,2.705-0.347c1.06-0.493,1.571-1.444,1.571-2.467
				c0-1.024-0.512-1.974-1.571-2.467c-0.768-0.347-1.262-0.347-2.705-0.347h-1.955V7.092z M12,0.239h3.766
				c1.863,0,2.74,0.293,3.489,0.786c1.005,0.676,1.682,1.827,1.682,3.253c0,1.425-0.677,2.577-1.682,3.253
				c-0.749,0.492-1.626,0.785-3.489,0.785h-2.413v5.444H12V0.239z"/>
		</g>
		<polygon fill="#D81E40" points="21.896,0.239 21.896,13.762 28.839,13.762 28.839,12.537 23.248,12.537 23.248,0.239 		"/>
		<g>
			<path fill="#D81E40" d="M30.312,0.239v8.425c0,0.986,0.146,1.883,0.457,2.449c0.822,1.516,2.157,1.662,2.796,1.662
				c0.64,0,1.974-0.146,2.796-1.662c0.312-0.566,0.457-1.463,0.457-2.449V0.239h1.353v8.425c0,1.133-0.183,2.102-0.512,2.814
				C36.726,13.508,34.825,14,33.564,14c-1.261,0-3.161-0.492-4.093-2.521c-0.329-0.713-0.513-1.682-0.513-2.813V0.239H30.312z"/>
		</g>
		<polygon fill="#D81E40" points="38.908,0.239 38.908,1.463 42.017,1.463 42.017,13.762 43.368,13.762 43.368,1.463 46.456,1.463 
			46.456,0.239 		"/>
		<rect x="47.184" y="0.239" fill="#D81E40" width="1.353" height="13.521"/>
		<polygon fill="#D81E40" points="60.062,0.239 60.062,11.459 60.027,11.459 52.479,0.239 50.652,0.239 50.652,13.762 
			52.004,13.762 52.004,1.866 52.04,1.866 60.062,13.762 61.415,13.762 61.415,0.239 		"/>
		<g>
			<path fill="#D81E40" d="M70.005,12.775c3.125,0,5.812-2.539,5.812-5.757c0-3.161-2.612-5.792-5.812-5.792
				c-3.052,0-5.793,2.486-5.793,5.848C64.212,10.162,66.862,12.775,70.005,12.775 M70.005,0.001c3.802,0,7.164,3.016,7.164,6.999
				c0,3.984-3.381,7-7.164,7c-3.838,0-7.146-3.125-7.146-6.926C62.859,2.815,66.405,0.001,70.005,0.001"/>
		</g>
	</g>
	<rect fill="none" width="1" height="1"/>
	<rect x="145" y="13" fill="none" width="1" height="1"/>
</g>
</svg>
