<?xml version="1.0" encoding="utf-8"?>
<!-- Generator: Adobe Illustrator 16.0.0, SVG Export Plug-In . SVG Version: 6.00 Build 0)  -->
<!DOCTYPE svg PUBLIC "-//W3C//DTD SVG 1.1//EN" "http://www.w3.org/Graphics/SVG/1.1/DTD/svg11.dtd">
<svg version="1.1" id="Layer_1" xmlns="http://www.w3.org/2000/svg" xmlns:xlink="http://www.w3.org/1999/xlink" x="0px" y="0px"
	 width="146px" height="14px" viewBox="0 0 146 14" enable-background="new 0 0 146 14" xml:space="preserve">
<g>
	<g>
		<g>
			<path d="M64.273,7.072c0-3.361,2.741-5.848,5.794-5.848c1.998,0,3.769,1.028,4.816,2.57h1.545C75.211,1.507,72.751,0,70.067,0
				c-3.602,0-7.146,2.813-7.146,7.071c0,3.802,3.308,6.928,7.146,6.928c2.673,0,5.144-1.508,6.365-3.797h-1.537
				c-1.059,1.558-2.854,2.571-4.828,2.571C66.922,12.773,64.273,10.161,64.273,7.072 M86.127,11.479
				c0.33-0.713,0.514-1.684,0.514-2.815V0.237h-1.354v8.425c0,0.986-0.146,1.883-0.457,2.449c-0.822,1.517-2.156,1.662-2.797,1.662
				c-0.639,0-1.973-0.146-2.795-1.662c-0.312-0.566-0.457-1.463-0.457-2.449V0.237H77.43v8.425c0,1.133,0.182,2.104,0.51,2.814
				C78.873,13.507,80.773,14,82.033,14C83.295,14,85.195,13.507,86.127,11.479 M88.473,13.762h6.943v-1.225h-5.592v-12.3h-1.352
				V13.762L88.473,13.762z M96.557,13.762h1.353V0.237h-1.353V13.762z M109.32,13.762h1.354V0.237h-1.354v11.222h-0.035
				l-7.549-11.222h-1.828v13.524h1.354V1.864h0.037L109.32,13.762z M121.174,9.068h-6.215l3.107-7.145L121.174,9.068z
				 M123.213,13.762h1.475l-5.881-13.524h-1.479l-5.882,13.524h1.476l1.451-3.34h7.392L123.213,13.762z M133.029,4.276
				c0,1.023-0.512,1.974-1.572,2.466c-0.768,0.349-1.26,0.349-2.705,0.349h-1.953V1.463h1.953c1.445,0,1.938,0,2.705,0.347
				C132.518,2.303,133.029,3.253,133.029,4.276 M134.383,4.276c0-1.426-0.678-2.577-1.682-3.253c-0.75-0.493-1.627-0.786-3.49-0.786
				h-3.766V13.76h1.354V8.314h1.76l4.105,5.446h1.693l-4.133-5.483c1.196-0.09,1.879-0.354,2.477-0.75
				C133.705,6.853,134.383,5.701,134.383,4.276 M145.512,0.237h-1.57l-3.778,6.435l-3.779-6.435h-1.569l4.672,7.955v5.569h1.354
				V8.191L145.512,0.237z"/>
			<path fill="#D81E40" d="M8.585,4.277c0,1.022-0.512,1.974-1.572,2.467C6.245,7.091,5.752,7.091,4.308,7.091H2.353V1.463h1.955
				c1.444,0,1.937,0,2.705,0.347C8.073,2.303,8.585,3.253,8.585,4.277 M9.937,4.277c0-1.427-0.676-2.577-1.681-3.253
				C7.507,0.53,6.629,0.238,4.765,0.238H1v13.523h1.353V8.314h2.412c1.864,0,2.742-0.293,3.491-0.785
				C9.261,6.854,9.937,5.702,9.937,4.277 M10.896,13.762h6.945v-1.224h-5.592v-12.3h-1.353V13.762z M26.66,11.479
				c0.329-0.713,0.512-1.683,0.512-2.814V0.238h-1.353v8.425c0,0.985-0.146,1.883-0.456,2.448c-0.823,1.518-2.157,1.662-2.797,1.662
				c-0.639,0-1.973-0.146-2.796-1.662c-0.311-0.565-0.457-1.463-0.457-2.448V0.238h-1.352v8.425c0,1.133,0.182,2.103,0.512,2.813
				C19.405,13.506,21.305,14,22.566,14C23.827,14,25.728,13.506,26.66,11.479 M32.765,1.463h3.088V0.238h-7.548v1.225h3.108v12.299
				h1.352V1.463z M36.975,13.762h1.353V0.238h-1.353V13.762z M49.855,13.762h1.353V0.238h-1.353V11.46h-0.036L42.271,0.238h-1.828
				v13.523h1.352V1.864h0.037L49.855,13.762z M65.61,7.018c0,3.216-2.686,5.757-5.812,5.757c-3.143,0-5.793-2.612-5.793-5.702
				c0-3.361,2.742-5.848,5.793-5.848C62.997,1.225,65.61,3.855,65.61,7.018 M66.963,7c0-3.984-3.363-7-7.166-7
				c-3.6,0-7.146,2.815-7.146,7.072c0,3.802,3.308,6.928,7.146,6.928C63.581,14,66.963,10.982,66.963,7"/>
		</g>
	</g>
	<rect x="145" y="13" fill="none" width="1" height="1"/>
	<rect y="0.001" fill="none" width="1" height="1"/>
</g>
</svg>
