<?xml version="1.0" encoding="utf-8"?>
<!-- Generator: Adobe Illustrator 16.0.0, SVG Export Plug-In . SVG Version: 6.00 Build 0)  -->
<!DOCTYPE svg PUBLIC "-//W3C//DTD SVG 1.1//EN" "http://www.w3.org/Graphics/SVG/1.1/DTD/svg11.dtd">
<svg version="1.1" id="Layer_1" xmlns="http://www.w3.org/2000/svg" xmlns:xlink="http://www.w3.org/1999/xlink" x="0px" y="0px"
	 width="199px" height="15px" viewBox="0 0 199 15" enable-background="new 0 0 199 15" xml:space="preserve">
<g>
	<g>
		<g>
			<g>
				<path fill="#ED174F" d="M71.731,7.5c0-4.27-3.604-7.5-7.677-7.5c-3.857,0-7.656,3.017-7.656,7.578
					c0,4.074,3.543,7.422,7.656,7.422C68.108,15,71.731,11.77,71.731,7.5 M70.282,7.519c0,3.446-2.878,6.168-6.228,6.168
					c-3.368,0-6.207-2.799-6.207-6.11c0-3.603,2.938-6.266,6.207-6.266C67.481,1.312,70.282,4.132,70.282,7.519 M53.401,14.746
					h1.449V0.253h-1.449v12.024h-0.039L45.275,0.253h-1.958v14.492h1.448V1.998h0.04L53.401,14.746z M39.39,14.746h1.448V0.253
					H39.39V14.746z M34.668,1.567h3.308V0.253H29.89v1.313h3.329v13.179h1.449V1.567z M27.916,12.298
					c0.354-0.764,0.548-1.801,0.548-3.016V0.253h-1.45v9.029c0,1.057-0.156,2.017-0.489,2.624c-0.881,1.625-2.311,1.781-2.996,1.781
					s-2.115-0.156-2.997-1.781c-0.333-0.607-0.49-1.567-0.49-2.624V0.253h-1.449v9.029c0,1.213,0.196,2.251,0.548,3.016
					c1,2.173,3.036,2.702,4.388,2.702S26.917,14.471,27.916,12.298 M10.814,14.746h7.44v-1.312h-5.991V0.253h-1.449V14.746z
					 M9.576,4.582c0-1.528-0.725-2.761-1.802-3.485c-0.802-0.529-1.741-0.843-3.74-0.843H0v14.492h1.449V8.911h2.585
					c1.998,0,2.938-0.315,3.74-0.843C8.851,7.343,9.576,6.109,9.576,4.582 M8.126,4.582c0,1.097-0.549,2.115-1.684,2.643
					C5.62,7.597,5.092,7.597,3.545,7.597H1.448v-6.03h2.096c1.547,0,2.075,0,2.898,0.372C7.578,2.468,8.126,3.486,8.126,4.582"/>
			</g>
		</g>
		<g>
			<g>
				<path fill="#FFFFFF" d="M94.187,7.5c0-4.269-3.604-7.5-7.677-7.5c-3.858,0-7.657,3.016-7.657,7.579
					c0,4.071,3.545,7.422,7.657,7.422C90.563,15,94.187,11.77,94.187,7.5 M92.737,7.519c0,3.446-2.878,6.168-6.228,6.168
					c-3.368,0-6.207-2.799-6.207-6.11c0-3.602,2.937-6.266,6.207-6.266C89.937,1.312,92.737,4.132,92.737,7.519"/>
			</g>
		</g>
		<g>
			<g>
				<path fill="#FFFFFF" d="M110.9,7.5c0-4.269-3.604-7.5-7.676-7.5c-3.856,0-7.659,3.016-7.659,7.579
					c0,4.071,3.546,7.422,7.659,7.422C107.277,15,110.9,11.77,110.9,7.5 M109.45,7.519c0,3.446-2.877,6.168-6.226,6.168
					c-3.37,0-6.208-2.799-6.208-6.11c0-3.602,2.938-6.266,6.208-6.266C106.652,1.312,109.45,4.132,109.45,7.519"/>
			</g>
		</g>
		<g>
			<g>
				<path fill="#FFFFFF" d="M68.354,13.684v1.062h1.449v-2.342C69.369,12.885,68.894,13.324,68.354,13.684 M69.803,1.566h7.551
					V0.254h-9V1.31l0,0c0.533,0.354,1.02,0.773,1.449,1.248V1.566L69.803,1.566z M77.354,8.909L77.354,8.909V7.598h-5.632h-1.448
					h-0.471V5.181c-0.333-0.804-0.829-1.525-1.449-2.121v0.002V8.57v3.383c0.616-0.586,1.114-1.292,1.449-2.087V8.909H77.354
					L77.354,8.909z"/>
			</g>
		</g>
		<g>
			<g>
				<path fill="#FFFFFF" d="M116.867,0.254h-4.37v14.492h4.37c3.916,0,7.416-3.122,7.416-7.247
					C124.283,3.376,120.801,0.254,116.867,0.254 M116.867,1.754c3.262,0,5.917,2.577,5.917,5.744c0,1.547-0.63,2.997-1.773,4.083
					c-1.112,1.058-2.624,1.663-4.144,1.663h-2.87V1.754H116.867z"/>
			</g>
		</g>
	</g>
	<polygon fill="#FFFFFF" points="157.402,0.254 157.402,14.746 164.844,14.746 164.844,13.434 158.854,13.434 158.854,0.254 	"/>
	<polygon fill="#FFFFFF" points="135.212,0.254 135.212,1.566 138.54,1.566 138.54,14.746 139.988,14.746 139.988,1.566 
		143.299,1.566 143.299,0.254 	"/>
	<polygon fill="#FFFFFF" points="180.855,0.254 180.855,1.566 184.184,1.566 184.184,14.746 185.633,14.746 185.633,1.566 
		188.941,1.566 188.941,0.254 	"/>
	<rect x="166.71" y="0.253" fill="#FFFFFF" width="1.449" height="14.492"/>
	<g>
		<g>
			<g>
				<path fill="#FFFFFF" d="M130.411,6.441c-1.947-0.402-3.058-1.175-3.058-2.434c0-1.258,0.897-2.456,2.506-2.456
					s2.479,1.316,2.479,2.587h1.469c0-2.202-1.722-3.883-3.91-3.883c-2.754,0-3.965,2.062-3.965,3.713
					c0,2.778,2.018,3.295,3.95,3.831c1.782,0.494,2.822,1.533,2.822,2.805c0,1.269-0.875,2.826-2.822,2.826
					c-2.862,0-2.92-2.859-2.92-2.859h-1.394c0,3.304,2.767,4.177,4.271,4.177c2.499,0,4.292-1.894,4.292-4.121
					C134.13,8.184,132.359,6.843,130.411,6.441"/>
			</g>
		</g>
		<g>
			<g>
				<path fill="#FFFFFF" d="M176.27,6.441c-1.949-0.402-3.059-1.175-3.059-2.434c0-1.258,0.896-2.456,2.506-2.456
					s2.479,1.316,2.479,2.587h1.469c0-2.202-1.721-3.883-3.909-3.883c-2.752,0-3.964,2.062-3.964,3.713
					c0,2.778,2.018,3.295,3.949,3.831c1.781,0.494,2.82,1.533,2.82,2.805c0,1.269-0.875,2.826-2.82,2.826
					c-2.862,0-2.922-2.859-2.922-2.859h-1.393c0,3.304,2.768,4.177,4.271,4.177c2.496,0,4.289-1.894,4.289-4.121
					C179.986,8.184,178.217,6.843,176.27,6.441"/>
			</g>
		</g>
		<g>
			<g>
				<path fill="#FFFFFF" d="M194.697,6.441c-1.947-0.402-3.059-1.175-3.059-2.434c0-1.258,0.897-2.456,2.508-2.456
					c1.607,0,2.478,1.316,2.478,2.587h1.47c0-2.202-1.722-3.883-3.91-3.883c-2.752,0-3.963,2.062-3.963,3.713
					c0,2.778,2.016,3.295,3.949,3.831c1.781,0.494,2.821,1.533,2.821,2.805c0,1.269-0.875,2.826-2.821,2.826
					c-2.863,0-2.922-2.859-2.922-2.859h-1.393c0,3.304,2.767,4.177,4.271,4.177c2.497,0,4.289-1.894,4.289-4.121
					C198.416,8.184,196.646,6.843,194.697,6.441"/>
			</g>
		</g>
	</g>
	<polygon fill="#FFFFFF" points="153.387,0.254 149.45,7.071 145.516,0.254 143.783,0.254 148.727,8.816 148.727,14.746 
		150.175,14.746 150.175,8.816 155.118,0.254 	"/>
	<rect fill="none" width="199" height="15"/>
</g>
</svg>
